<svg xmlns="http://www.w3.org/2000/svg" width="1600" height="900" viewBox="0 0 1600 900" role="img" aria-labelledby="title desc">
  <title id="title">Tactas AI managed AI operating layer diagram</title>
  <desc id="desc">Business tools connect into one managed Tactas AI operating layer, which prepares controlled business outcomes for knowledge, data, tasks, teams, and outputs.</desc>
  <defs>
    <linearGradient id="hubFill" x1="620" y1="326" x2="980" y2="642" gradientUnits="userSpaceOnUse">
      <stop offset="0" stop-color="#ffffff"/>
      <stop offset="0.52" stop-color="#f8fbff"/>
      <stop offset="1" stop-color="#eef5ff"/>
    </linearGradient>
    <linearGradient id="hubStroke" x1="620" y1="326" x2="980" y2="642" gradientUnits="userSpaceOnUse">
      <stop offset="0" stop-color="#06B6D4"/>
      <stop offset="0.5" stop-color="#2563EB"/>
      <stop offset="1" stop-color="#7C3AED"/>
    </linearGradient>
    <linearGradient id="brandMark" x1="704" y1="390" x2="890" y2="518" gradientUnits="userSpaceOnUse">
      <stop offset="0" stop-color="#06B6D4"/>
      <stop offset="0.48" stop-color="#2563EB"/>
      <stop offset="1" stop-color="#7C3AED"/>
    </linearGradient>
    <radialGradient id="centerGlow" cx="50%" cy="50%" r="50%">
      <stop offset="0" stop-color="#2563EB" stop-opacity="0.22"/>
      <stop offset="0.56" stop-color="#06B6D4" stop-opacity="0.12"/>
      <stop offset="1" stop-color="#2563EB" stop-opacity="0"/>
    </radialGradient>
    <filter id="softShadow" x="-30%" y="-30%" width="160%" height="170%">
      <feDropShadow dx="0" dy="16" stdDeviation="18" flood-color="#07111F" flood-opacity="0.12"/>
    </filter>
    <filter id="smallShadow" x="-30%" y="-30%" width="160%" height="170%">
      <feDropShadow dx="0" dy="10" stdDeviation="10" flood-color="#07111F" flood-opacity="0.10"/>
    </filter>
    <style>
      .bg { fill: #F7F9FC; }
      .ink { fill: #07111F; }
      .muted { fill: #475569; }
      .faint { fill: #64748B; }
      .eyebrow { font: 700 14px Manrope, Inter, system-ui, sans-serif; letter-spacing: 3px; text-transform: uppercase; }
      .headline { font: 800 46px Manrope, Inter, system-ui, sans-serif; letter-spacing: 0; }
      .caption { font: 500 21px Manrope, Inter, system-ui, sans-serif; letter-spacing: 0; }
      .zone { font: 800 13px Manrope, Inter, system-ui, sans-serif; letter-spacing: 2px; text-transform: uppercase; }
      .cardTitle { font: 800 18px Manrope, Inter, system-ui, sans-serif; letter-spacing: 0; }
      .toolText { font: 700 15px Manrope, Inter, system-ui, sans-serif; letter-spacing: 0; }
      .outcome { font: 800 21px Manrope, Inter, system-ui, sans-serif; letter-spacing: 0; }
      .outcomeSub { font: 600 12px Manrope, Inter, system-ui, sans-serif; letter-spacing: 1.4px; text-transform: uppercase; }
      .hubTitle { font: 800 35px Manrope, Inter, system-ui, sans-serif; letter-spacing: 0; }
      .hubSub { font: 700 17px Manrope, Inter, system-ui, sans-serif; letter-spacing: 0; }
      .cap { font: 800 14px Manrope, Inter, system-ui, sans-serif; letter-spacing: 0; }
      .flow { fill: none; stroke: #2563EB; stroke-width: 2; stroke-linecap: round; stroke-linejoin: round; opacity: 0.34; }
      .flowCyan { fill: none; stroke: #06B6D4; stroke-width: 2; stroke-linecap: round; stroke-linejoin: round; opacity: 0.42; }
      .flowViolet { fill: none; stroke: #7C3AED; stroke-width: 2; stroke-linecap: round; stroke-linejoin: round; opacity: 0.30; }
    </style>
  </defs>

  <rect class="bg" width="1600" height="900"/>
  <path d="M0 0H1600V900H0Z" fill="url(#centerGlow)" opacity="0.75"/>
  <g opacity="0.46">
    <path d="M90 210H1510" stroke="#E2E8F0"/>
    <path d="M90 690H1510" stroke="#E2E8F0"/>
    <path d="M300 170V734" stroke="#E2E8F0"/>
    <path d="M1300 170V734" stroke="#E2E8F0"/>
  </g>
  <g opacity="0.32">
    <path d="M117 254h2M177 254h2M237 254h2M297 254h2M357 254h2M417 254h2M477 254h2M537 254h2M597 254h2M657 254h2M717 254h2M777 254h2M837 254h2M897 254h2M957 254h2M1017 254h2M1077 254h2M1137 254h2M1197 254h2M1257 254h2M1317 254h2M1377 254h2M1437 254h2" stroke="#CBD5E1" stroke-width="2" stroke-linecap="round"/>
    <path d="M117 646h2M177 646h2M237 646h2M297 646h2M357 646h2M417 646h2M477 646h2M537 646h2M597 646h2M657 646h2M717 646h2M777 646h2M837 646h2M897 646h2M957 646h2M1017 646h2M1077 646h2M1137 646h2M1197 646h2M1257 646h2M1317 646h2M1377 646h2M1437 646h2" stroke="#CBD5E1" stroke-width="2" stroke-linecap="round"/>
  </g>

  <text x="800" y="86" text-anchor="middle" class="eyebrow" fill="#2563EB">Tactas AI operating layer</text>
  <text x="800" y="147" text-anchor="middle" class="headline ink">Connect every business tool to one managed AI operating layer.</text>
  <text x="800" y="190" text-anchor="middle" class="caption muted">Turn company knowledge, live data, and connected tools into supervised business action.</text>

  <text x="172" y="244" class="zone faint">Business tools</text>
  <text x="713" y="244" class="zone faint">Managed AI operating layer</text>
  <text x="1195" y="244" class="zone faint">Business outcomes</text>

  <g id="tool-cards" filter="url(#smallShadow)">
    <g transform="translate(78 292)">
      <rect width="260" height="102" rx="20" fill="#FFFFFF" stroke="#D7E1EF"/>
      <rect x="18" y="17" width="4" height="68" rx="2" fill="#06B6D4"/>
      <text x="34" y="40" class="cardTitle ink">Docs &amp; Knowledge</text>
      <g transform="translate(34 58)">
        <rect width="90" height="30" rx="10" fill="#F8FAFC" stroke="#E2E8F0"/>
        <path d="M18 8l10 5v10l-10-5V8Z" fill="#34A853"/><path d="M28 13l8-5v10l-8 5V13Z" fill="#4285F4"/><path d="M18 8l8-5 10 5-8 5-10-5Z" fill="#FABB05"/>
        <text x="45" y="20" class="toolText ink">Drive</text>
        <rect x="102" width="104" height="30" rx="10" fill="#F8FAFC" stroke="#E2E8F0"/>
        <rect x="116" y="7" width="16" height="16" rx="3" fill="#07111F"/><text x="120" y="20" font-family="Manrope, Inter, system-ui" font-size="12" font-weight="800" fill="#FFFFFF">N</text>
        <text x="140" y="20" class="toolText ink">Notion</text>
      </g>
    </g>
    <g transform="translate(78 438)">
      <rect width="260" height="102" rx="20" fill="#FFFFFF" stroke="#D7E1EF"/>
      <rect x="18" y="17" width="4" height="68" rx="2" fill="#2563EB"/>
      <text x="34" y="40" class="cardTitle ink">CRM &amp; Support</text>
      <g transform="translate(34 58)">
        <rect width="116" height="30" rx="10" fill="#F8FAFC" stroke="#E2E8F0"/>
        <path d="M18 19c-9 0-9-12 0-12 3-7 14-5 16 1 8 0 10 11 1 11H18Z" fill="#00A1E0"/>
        <text x="48" y="20" class="toolText ink">Salesforce</text>
        <rect x="128" width="92" height="30" rx="10" fill="#F8FAFC" stroke="#E2E8F0"/>
        <path d="M146 8h18l-12 14h-18l12-14Z" fill="#03363D"/>
        <text x="170" y="20" class="toolText ink">Zendesk</text>
      </g>
    </g>
    <g transform="translate(78 584)">
      <rect width="260" height="102" rx="20" fill="#FFFFFF" stroke="#D7E1EF"/>
      <rect x="18" y="17" width="4" height="68" rx="2" fill="#7C3AED"/>
      <text x="34" y="40" class="cardTitle ink">Communication</text>
      <g transform="translate(34 58)">
        <rect width="88" height="30" rx="10" fill="#F8FAFC" stroke="#E2E8F0"/>
        <circle cx="19" cy="10" r="5" fill="#36C5F0"/><circle cx="29" cy="20" r="5" fill="#2EB67D"/><circle cx="19" cy="20" r="5" fill="#E01E5A"/><circle cx="29" cy="10" r="5" fill="#ECB22E"/>
        <text x="44" y="20" class="toolText ink">Slack</text>
        <rect x="100" width="92" height="30" rx="10" fill="#F8FAFC" stroke="#E2E8F0"/>
        <rect x="114" y="7" width="16" height="16" rx="4" fill="#6264A7"/><text x="118" y="20" font-family="Manrope, Inter, system-ui" font-size="12" font-weight="800" fill="#FFFFFF">T</text>
        <text x="138" y="20" class="toolText ink">Teams</text>
      </g>
    </g>

    <g transform="translate(1262 292)">
      <rect width="260" height="102" rx="20" fill="#FFFFFF" stroke="#D7E1EF"/>
      <rect x="238" y="17" width="4" height="68" rx="2" fill="#06B6D4"/>
      <text x="24" y="40" class="cardTitle ink">Data</text>
      <g transform="translate(24 58)">
        <rect width="116" height="30" rx="10" fill="#F8FAFC" stroke="#E2E8F0"/>
        <path d="M22 6l5 9 9-5-5 9 8 5h-11v-10l-6-8ZM22 24l-5-9-9 5 5-9-8-5h11v10l6 8Z" fill="#29B5E8"/>
        <text x="48" y="20" class="toolText ink">Snowflake</text>
        <rect x="128" width="102" height="30" rx="10" fill="#F8FAFC" stroke="#E2E8F0"/>
        <circle cx="147" cy="15" r="10" fill="#4285F4"/><rect x="145" y="10" width="4" height="11" fill="#FFFFFF"/><rect x="151" y="14" width="4" height="7" fill="#FFFFFF"/>
        <text x="165" y="20" class="toolText ink">BigQuery</text>
      </g>
    </g>
    <g transform="translate(1262 438)">
      <rect width="260" height="102" rx="20" fill="#FFFFFF" stroke="#D7E1EF"/>
      <rect x="238" y="17" width="4" height="68" rx="2" fill="#2563EB"/>
      <text x="24" y="40" class="cardTitle ink">Project Management</text>
      <g transform="translate(24 58)">
        <rect width="78" height="30" rx="10" fill="#F8FAFC" stroke="#E2E8F0"/>
        <path d="M17 6l14 9-14 9 7-9-7-9Z" fill="#0052CC"/>
        <text x="40" y="20" class="toolText ink">Jira</text>
        <rect x="90" width="90" height="30" rx="10" fill="#F8FAFC" stroke="#E2E8F0"/>
        <circle cx="106" cy="18" r="5" fill="#F06A6A"/><circle cx="117" cy="12" r="5" fill="#F06A6A"/><circle cx="128" cy="18" r="5" fill="#F06A6A"/>
        <text x="140" y="20" class="toolText ink">Asana</text>
      </g>
    </g>
    <g transform="translate(1262 584)">
      <rect width="260" height="102" rx="20" fill="#FFFFFF" stroke="#D7E1EF"/>
      <rect x="238" y="17" width="4" height="68" rx="2" fill="#F59E0B"/>
      <text x="24" y="40" class="cardTitle ink">Finance</text>
      <g transform="translate(24 58)">
        <rect width="82" height="30" rx="10" fill="#F8FAFC" stroke="#E2E8F0"/>
        <rect x="14" y="8" width="20" height="14" rx="7" fill="#635BFF"/><text x="20" y="20" font-family="Manrope, Inter, system-ui" font-size="12" font-weight="800" fill="#FFFFFF">S</text>
        <text x="42" y="20" class="toolText ink">Stripe</text>
        <rect x="94" width="126" height="30" rx="10" fill="#F8FAFC" stroke="#E2E8F0"/>
        <circle cx="112" cy="15" r="10" fill="#2CA01C"/><text x="105" y="20" font-family="Manrope, Inter, system-ui" font-size="11" font-weight="800" fill="#FFFFFF">qb</text>
        <text x="130" y="20" class="toolText ink">QuickBooks</text>
      </g>
    </g>
  </g>

  <g id="connections-to-hub">
    <path class="flowCyan" d="M338 343 C452 343 489 374 596 407"/>
    <path class="flow" d="M338 489 C460 489 500 478 596 478"/>
    <path class="flowViolet" d="M338 635 C448 635 486 575 596 528"/>
    <path class="flowCyan" d="M1262 343 C1148 343 1111 374 1004 407"/>
    <path class="flow" d="M1262 489 C1140 489 1100 478 1004 478"/>
    <path class="flowViolet" d="M1262 635 C1152 635 1114 575 1004 528"/>
    <g fill="#2563EB" opacity="0.56">
      <circle cx="596" cy="407" r="4"/><circle cx="596" cy="478" r="4"/><circle cx="596" cy="528" r="4"/>
      <circle cx="1004" cy="407" r="4"/><circle cx="1004" cy="478" r="4"/><circle cx="1004" cy="528" r="4"/>
    </g>
  </g>

  <g id="outcomes" filter="url(#smallShadow)">
    <g transform="translate(438 312)">
      <rect width="158" height="78" rx="19" fill="#FFFFFF" stroke="#CFE1F8"/>
      <circle cx="38" cy="39" r="18" fill="#EFF6FF"/><path d="M29 35h18M29 42h14M29 49h12M33 28h16v30H31c-5 0-7-6-2-8" fill="none" stroke="#2563EB" stroke-width="2" stroke-linecap="round"/>
      <text x="70" y="36" class="outcome ink">Knowledge</text>
      <text x="70" y="56" class="outcomeSub faint">Source-backed</text>
    </g>
    <g transform="translate(448 574)">
      <rect width="144" height="78" rx="19" fill="#FFFFFF" stroke="#CFE1F8"/>
      <circle cx="38" cy="39" r="18" fill="#ECFEFF"/><path d="M28 44c0 6 20 6 20 0V32c0-6-20-6-20 0v12ZM28 32c0 6 20 6 20 0" fill="none" stroke="#06B6D4" stroke-width="2"/>
      <text x="70" y="36" class="outcome ink">Data</text>
      <text x="70" y="56" class="outcomeSub faint">Live signals</text>
    </g>
    <g transform="translate(718 700)">
      <rect width="164" height="78" rx="19" fill="#FFFFFF" stroke="#D8CCFB"/>
      <circle cx="38" cy="39" r="18" fill="#F5F3FF"/><path d="M30 40l6 6 13-16M29 30h20v22H29z" fill="none" stroke="#7C3AED" stroke-width="2" stroke-linecap="round" stroke-linejoin="round"/>
      <text x="70" y="36" class="outcome ink">Tasks</text>
      <text x="70" y="56" class="outcomeSub faint">Prepared work</text>
    </g>
    <g transform="translate(1008 574)">
      <rect width="144" height="78" rx="19" fill="#FFFFFF" stroke="#CFE1F8"/>
      <circle cx="38" cy="39" r="18" fill="#EFF6FF"/><path d="M30 49c1-7 17-7 18 0M35 34a6 6 0 1 0 8 0M50 45c1-5 11-5 12 0M53 35a5 5 0 1 0 6 0" fill="none" stroke="#2563EB" stroke-width="2" stroke-linecap="round"/>
      <text x="70" y="36" class="outcome ink">Teams</text>
      <text x="70" y="56" class="outcomeSub faint">Review paths</text>
    </g>
    <g transform="translate(1004 312)">
      <rect width="158" height="78" rx="19" fill="#FFFFFF" stroke="#CFE1F8"/>
      <circle cx="38" cy="39" r="18" fill="#ECFEFF"/><path d="M30 30h14l8 8v18H30V30zM44 30v9h8M35 47h12" fill="none" stroke="#06B6D4" stroke-width="2" stroke-linecap="round" stroke-linejoin="round"/>
      <text x="70" y="36" class="outcome ink">Outputs</text>
      <text x="70" y="56" class="outcomeSub faint">Action-ready</text>
    </g>
  </g>

  <g id="hub" filter="url(#softShadow)">
    <circle cx="800" cy="478" r="190" fill="none" stroke="#DBEAFE" stroke-width="1.5"/>
    <circle cx="800" cy="478" r="151" fill="none" stroke="#BFDBFE" stroke-width="1.5" stroke-dasharray="5 9"/>
    <rect x="618" y="326" width="364" height="304" rx="40" fill="url(#hubFill)" stroke="url(#hubStroke)" stroke-width="2"/>
    <rect x="642" y="350" width="316" height="256" rx="32" fill="#FFFFFF" stroke="#E2E8F0"/>
    <path d="M726 407h148l-30 35h-55l-21 24h-58l54-59h-38Z" fill="url(#brandMark)"/>
    <path d="M821 442l-42 50h-58l42-50h58Z" fill="#2563EB" opacity="0.94"/>
    <text x="800" y="520" text-anchor="middle" class="hubTitle ink">Tactas AI</text>
    <text x="800" y="553" text-anchor="middle" class="hubSub muted">Managed AI operating layer</text>
    <rect x="693" y="572" width="214" height="30" rx="15" fill="#EFF6FF" stroke="#BFDBFE"/>
    <text x="800" y="592" text-anchor="middle" font-family="Manrope, Inter, system-ui" font-size="13" font-weight="800" fill="#2563EB">Context-aware, governed, observable</text>
  </g>

  <g id="capability-labels" filter="url(#smallShadow)">
    <g transform="translate(662 276)">
      <rect width="128" height="38" rx="19" fill="#FFFFFF" stroke="#BAE6FD"/>
      <circle cx="21" cy="19" r="7" fill="#06B6D4"/><text x="38" y="24" class="cap ink">Context</text>
    </g>
    <g transform="translate(812 276)">
      <rect width="142" height="38" rx="19" fill="#FFFFFF" stroke="#C7D2FE"/>
      <circle cx="21" cy="19" r="7" fill="#2563EB"/><text x="38" y="24" class="cap ink">Reasoning</text>
    </g>
    <g transform="translate(616 650)">
      <rect width="190" height="38" rx="19" fill="#FFFFFF" stroke="#DDD6FE"/>
      <circle cx="21" cy="19" r="7" fill="#7C3AED"/><text x="38" y="24" class="cap ink">Action Preparation</text>
    </g>
    <g transform="translate(826 650)">
      <rect width="176" height="38" rx="19" fill="#FFFFFF" stroke="#C7D2FE"/>
      <circle cx="21" cy="19" r="7" fill="#2563EB"/><text x="38" y="24" class="cap ink">Control &amp; Audit</text>
    </g>
  </g>

  <g id="hub-to-outcomes">
    <path class="flow" d="M672 392 C636 363 610 356 596 351"/>
    <path class="flowCyan" d="M660 558 C622 586 600 603 592 613"/>
    <path class="flowViolet" d="M800 630 C800 660 800 682 800 700"/>
    <path class="flow" d="M940 558 C978 586 1000 603 1008 613"/>
    <path class="flowCyan" d="M928 392 C964 363 990 356 1004 351"/>
  </g>

  <g id="governance-strip" transform="translate(466 810)" filter="url(#smallShadow)">
    <rect width="668" height="62" rx="24" fill="#FFFFFF" stroke="#D7E1EF"/>
    <g transform="translate(29 17)">
      <path d="M14 2l12 5v8c0 8-5 14-12 17C7 29 2 23 2 15V7l12-5Z" fill="#EFF6FF" stroke="#2563EB" stroke-width="2"/>
      <path d="M9 15l4 4 8-9" fill="none" stroke="#2563EB" stroke-width="2.2" stroke-linecap="round" stroke-linejoin="round"/>
      <text x="46" y="21" font-family="Manrope, Inter, system-ui" font-size="17" font-weight="800" fill="#07111F">Supervised action with approval gates, logs, and audit-ready traces</text>
    </g>
  </g>
</svg>
